<svg width="25" height="25" viewBox="0 0 25 25" fill="none" xmlns="http://www.w3.org/2000/svg">
<path d="M12.4954 5.96271L12.9359 5.20323C13.0007 5.09073 13.087 4.9921 13.19 4.91297C13.2929 4.83384 13.4104 4.77576 13.5358 4.74204C13.6611 4.70833 13.7919 4.69963 13.9207 4.71646C14.0494 4.73329 14.1736 4.77532 14.2861 4.84013C14.3986 4.90494 14.4972 4.99128 14.5763 5.09421C14.6554 5.19714 14.7135 5.31465 14.7472 5.44003C14.781 5.5654 14.7897 5.69619 14.7728 5.82493C14.756 5.95367 14.714 6.07783 14.6492 6.19032L10.4151 13.5212H13.4778C14.4695 13.5212 15.0262 14.6871 14.5957 15.4954H5.61974C5.07316 15.4954 4.63264 15.0548 4.63264 14.5083C4.63264 13.9617 5.07316 13.5212 5.61974 13.5212H8.13587L11.3581 7.9369L10.3516 6.19032C10.2328 5.96394 10.2062 5.70036 10.2775 5.45483C10.3487 5.20929 10.5123 5.00087 10.7338 4.87324C10.9553 4.74561 11.2176 4.70869 11.4658 4.7702C11.7139 4.83172 11.9286 4.9869 12.0649 5.20323L12.4954 5.96271ZM8.6871 16.5111L7.73871 18.1563C7.6739 18.2688 7.58756 18.3674 7.48463 18.4465C7.3817 18.5256 7.26419 18.5837 7.13881 18.6174C7.01344 18.6512 6.88264 18.6598 6.75391 18.643C6.62517 18.6262 6.50101 18.5842 6.38852 18.5194C6.27602 18.4545 6.17739 18.3682 6.09826 18.2653C6.01913 18.1623 5.96105 18.0448 5.92733 17.9195C5.89362 17.7941 5.88493 17.6633 5.90175 17.5346C5.91858 17.4058 5.96061 17.2817 6.02542 17.1692L6.73226 15.9498C7.52581 15.7028 8.17458 15.8917 8.6871 16.5111V16.5111ZM16.8595 13.5258H19.429C19.9756 13.5258 20.4161 13.9663 20.4161 14.5129C20.4161 15.0595 19.9756 15.5 19.429 15.5H18.0014L18.9645 17.1692C19.0833 17.3955 19.1099 17.6591 19.0386 17.9047C18.9674 18.1502 18.8039 18.3586 18.5823 18.4862C18.3608 18.6139 18.0985 18.6508 17.8503 18.5893C17.6022 18.5278 17.3875 18.3726 17.2512 18.1563C15.6301 15.3452 14.4107 13.2401 13.6032 11.8373C12.7756 10.4097 13.3663 8.97742 13.9516 8.49355C14.5996 9.60684 15.5674 11.2853 16.8595 13.5258V13.5258ZM12.5 0.5C5.87058 0.5 0.5 5.87135 0.5 12.5C0.5 19.1286 5.87135 24.5 12.5 24.5C19.1294 24.5 24.5 19.1286 24.5 12.5C24.5 5.87135 19.1286 0.5 12.5 0.5ZM22.9516 12.5C22.9516 18.2437 18.3018 22.9516 12.5 22.9516C6.75626 22.9516 2.04839 18.3018 2.04839 12.5C2.04839 6.75626 6.69819 2.04839 12.5 2.04839C18.2437 2.04839 22.9516 6.69819 22.9516 12.5Z" fill="white"/>
</svg>
