<svg width="20" height="22" viewBox="0 0 20 22" fill="none" xmlns="http://www.w3.org/2000/svg">
<path d="M18.9719 9.70625L3.24062 0.696874C3.01066 0.564894 2.74981 0.496231 2.48467 0.497877C2.21953 0.499524 1.95956 0.571423 1.73125 0.706249C1.50454 0.834904 1.31634 1.02181 1.18612 1.24763C1.0559 1.47345 0.98841 1.72996 0.990623 1.99062V20.0094C0.993099 20.4056 1.15223 20.7847 1.43326 21.064C1.7143 21.3433 2.09442 21.5 2.49062 21.5C2.75345 21.5004 3.01187 21.4325 3.24062 21.3031L18.9719 12.2937C19.2048 12.1674 19.3993 11.9805 19.5348 11.7528C19.6703 11.5251 19.7419 11.265 19.7419 11C19.7419 10.735 19.6703 10.4749 19.5348 10.2472C19.3993 10.0195 19.2048 9.83261 18.9719 9.70625V9.70625ZM2.49062 18.9594V3.04062L10.45 11L2.49062 18.9594ZM11.5094 12.0594L13.2719 13.8312L5.00312 18.5562L11.5094 12.0594ZM5.00312 3.43437L13.2719 8.16875L11.5094 9.94062L5.00312 3.43437ZM14.6219 13.0531L12.5688 11L14.6219 8.94687L18.2125 11L14.6219 13.0531Z" fill="white"/>
</svg>
