<svg width="24" height="24" viewBox="0 0 24 24" fill="none" xmlns="http://www.w3.org/2000/svg">
<path d="M15.5 2.25C15.5 2.05109 15.579 1.86032 15.7197 1.71967C15.8603 1.57902 16.0511 1.5 16.25 1.5H21.75C21.9489 1.5 22.1397 1.57902 22.2803 1.71967C22.421 1.86032 22.5 2.05109 22.5 2.25V7.75C22.5 7.94891 22.421 8.13968 22.2803 8.28033C22.1397 8.42098 21.9489 8.5 21.75 8.5C21.5511 8.5 21.3603 8.42098 21.2197 8.28033C21.079 8.13968 21 7.94891 21 7.75V4.06L14.78 10.28C14.7113 10.3537 14.6285 10.4128 14.5365 10.4538C14.4445 10.4948 14.3452 10.5168 14.2445 10.5186C14.1438 10.5204 14.0438 10.5018 13.9504 10.4641C13.857 10.4264 13.7722 10.3703 13.701 10.299C13.6297 10.2278 13.5736 10.143 13.5359 10.0496C13.4982 9.95621 13.4796 9.85618 13.4814 9.75548C13.4832 9.65478 13.5052 9.55546 13.5462 9.46346C13.5872 9.37146 13.6463 9.28866 13.72 9.22L19.94 3H16.25C16.0511 3 15.8603 2.92098 15.7197 2.78033C15.579 2.63968 15.5 2.44891 15.5 2.25Z" fill="white"/>
<path d="M2.5 4.25C2.5 3.284 3.284 2.5 4.25 2.5H12.75C12.9489 2.5 13.1397 2.57902 13.2803 2.71967C13.421 2.86032 13.5 3.05109 13.5 3.25C13.5 3.44891 13.421 3.63968 13.2803 3.78033C13.1397 3.92098 12.9489 4 12.75 4H4.25C4.1837 4 4.12011 4.02634 4.07322 4.07322C4.02634 4.12011 4 4.1837 4 4.25V19.75C4 19.888 4.112 20 4.25 20H19.75C19.8163 20 19.8799 19.9737 19.9268 19.9268C19.9737 19.8799 20 19.8163 20 19.75V11.25C20 11.0511 20.079 10.8603 20.2197 10.7197C20.3603 10.579 20.5511 10.5 20.75 10.5C20.9489 10.5 21.1397 10.579 21.2803 10.7197C21.421 10.8603 21.5 11.0511 21.5 11.25V19.75C21.5 20.2141 21.3156 20.6592 20.9874 20.9874C20.6592 21.3156 20.2141 21.5 19.75 21.5H4.25C3.78587 21.5 3.34075 21.3156 3.01256 20.9874C2.68437 20.6592 2.5 20.2141 2.5 19.75V4.25Z" fill="white"/>
</svg>
